<?xml version="1.0" encoding="UTF-8"?>
<svg version="1.1" xmlns="http://www.w3.org/2000/svg" width="135" height="34">
<path d="M0 0 C3.8470276 1.35748617 7.3796465 3.13478409 11 5 C18.72263867 7.57421289 27.32009771 6.59679828 34.77734375 3.68359375 C39.11482089 2.34957178 43.53352419 2.34066309 48 3 C51.00197464 4.80118478 52.45166366 5.90332732 54 9 C54.46280992 15.24793388 54.46280992 15.24793388 52.5 18.4375 C52.005 18.953125 51.51 19.46875 51 20 C52.32 22.64 53.64 25.28 55 28 C52.69 28 50.38 28 48 28 C47.15885829 26.56705502 46.32734313 25.12845595 45.5 23.6875 C45.0359375 22.88699219 44.571875 22.08648438 44.09375 21.26171875 C43 19 43 19 43 16 C44.65 15.34 46.3 14.68 48 14 C47.505 12.02 47.505 12.02 47 10 C41.57557685 8.6352566 37.52229487 9.5094485 32.25 10.875 C31.09951172 11.15537109 31.09951172 11.15537109 29.92578125 11.44140625 C25.85967876 12.42559375 25.85967876 12.42559375 22 14 C22.66 14.66 23.32 15.32 24 16 C24.30078125 18.05859375 24.30078125 18.05859375 24.3125 20.4375 C24.32925781 21.21996094 24.34601562 22.00242187 24.36328125 22.80859375 C23.91295982 25.52504882 23.20330408 26.38559747 21 28 C17.06905293 28.50030235 14.8994213 28.5996142 11.5625 26.375 C9.60355395 23.397402 9.68214094 21.49644963 10 18 C8.68 18.33 7.36 18.66 6 19 C5.67 21.97 5.34 24.94 5 28 C3.02 28 1.04 28 -1 28 C-1 23.05 -1 18.1 -1 13 C2.63 13 6.26 13 10 13 C10.33 13.66 10.66 14.32 11 15 C11.66 14.34 12.32 13.68 13 13 C10.58757287 11.82379175 8.17072309 10.6589044 5.75 9.5 C5.06808594 9.16613281 4.38617187 8.83226562 3.68359375 8.48828125 C0.1479008 6.80625256 -2.01929286 6 -6 6 C-5.01 6.66 -4.02 7.32 -3 8 C-2.16427999 11.47145233 -1.64301273 13.95649876 -2.8125 17.375 C-4 19 -4 19 -6 20 C-7.54023996 20.06950541 -9.08334988 20.08452357 -10.625 20.0625 C-11.85089844 20.04896484 -11.85089844 20.04896484 -13.1015625 20.03515625 C-13.72804688 20.02355469 -14.35453125 20.01195313 -15 20 C-15 22.64 -15 25.28 -15 28 C-16.98 28 -18.96 28 -21 28 C-21 20.41 -21 12.82 -21 5 C-17.535 4.505 -17.535 4.505 -14 4 C-13.67 3.01 -13.34 2.02 -13 1 C-8.99983203 -1.00008399 -4.34641055 -0.50973037 0 0 Z M-12 12 C-12.33 12.66 -12.66 13.32 -13 14 C-12.34 14 -11.68 14 -11 14 C-11.33 13.34 -11.66 12.68 -12 12 Z M16 17 C15.67 17.66 15.34 18.32 15 19 C16.32 18.67 17.64 18.34 19 18 C18.01 17.67 17.02 17.34 16 17 Z M15 22 C15.33 22.66 15.66 23.32 16 24 C17.32 23.34 18.64 22.68 20 22 C18.35 22 16.7 22 15 22 Z " fill="#000A3A" transform="translate(21,0)"/>
<path d="M0 0 C2.413125 0.12375 4.82625 0.2475 7.3125 0.375 C8.06829346 0.40899902 8.82408691 0.44299805 9.6027832 0.47802734 C13.21109834 0.69161718 14.93053457 0.95368971 18 3 C18.83572001 6.47145233 19.35698727 8.95649876 18.1875 12.375 C17 14 17 14 15 15 C13.45976004 15.06950541 11.91665012 15.08452357 10.375 15.0625 C9.14910156 15.04896484 9.14910156 15.04896484 7.8984375 15.03515625 C6.95871094 15.01775391 6.95871094 15.01775391 6 15 C6 17.64 6 20.28 6 23 C4.02 23 2.04 23 0 23 C0 15.41 0 7.82 0 0 Z M9 7 C8.67 7.66 8.34 8.32 8 9 C8.66 9 9.32 9 10 9 C9.67 8.34 9.34 7.68 9 7 Z " fill="#1A5CEE" transform="translate(0,5)"/>
<path d="M0 0 C3.63 0 7.26 0 11 0 C11.33 0.66 11.66 1.32 12 2 C12.66 1.34 13.32 0.68 14 0 C21.20129812 -0.5715316 21.20129812 -0.5715316 23.73046875 1.23828125 C25.33290808 3.46197398 25.40221712 4.7782882 25.375 7.5 C25.38273437 8.2734375 25.39046875 9.046875 25.3984375 9.84375 C24.90436939 12.51753038 24.17305273 13.39906739 22 15 C18.06905293 15.50030235 15.8994213 15.5996142 12.5625 13.375 C10.60355395 10.397402 10.68214094 8.49644963 11 5 C9.68 5.33 8.36 5.66 7 6 C6.67 8.97 6.34 11.94 6 15 C4.02 15 2.04 15 0 15 C0 10.05 0 5.1 0 0 Z M17 4 C16.67 4.66 16.34 5.32 16 6 C17.32 5.67 18.64 5.34 20 5 C19.01 4.67 18.02 4.34 17 4 Z M16 9 C16.33 9.66 16.66 10.32 17 11 C18.32 10.34 19.64 9.68 21 9 C19.35 9 17.7 9 16 9 Z " fill="#1A5CEE" transform="translate(20,13)"/>
<path d="M0 0 C11.44112478 -0.36906854 11.44112478 -0.36906854 13.86328125 1.23046875 C15.29444126 3.45835701 15.40136288 4.8637122 15.375 7.5 C15.38273437 8.2734375 15.39046875 9.046875 15.3984375 9.84375 C14.90793334 12.49824309 14.14236179 13.39704522 12 15 C9.3125 15.1875 9.3125 15.1875 7 15 C6.67 16.65 6.34 18.3 6 20 C4.02 20 2.04 20 0 20 C0 13.4 0 6.8 0 0 Z M7 4 C5.70366379 5.06645115 5.70366379 5.06645115 5.9375 7.5625 C5.958125 8.366875 5.97875 9.17125 6 10 C6.99 10 7.98 10 9 10 C10.01111093 6.95086772 10.01111093 6.95086772 9 4 C8.34 4 7.68 4 7 4 Z " fill="#1A5CEE" transform="translate(47,13)"/>
<path d="M0 0 C1.98 0 3.96 0 6 0 C6 3.3 6 6.6 6 10 C6.99 10 7.98 10 9 10 C9 6.7 9 3.4 9 0 C10.98 0 12.96 0 15 0 C15 4.95 15 9.9 15 15 C10.14173402 15 5.78745771 14.87044686 1 14 C-0.38226016 11.23547967 -0.09525387 8.9538637 -0.0625 5.875 C-0.05347656 4.77929688 -0.04445313 3.68359375 -0.03515625 2.5546875 C-0.02355469 1.71164062 -0.01195313 0.86859375 0 0 Z " fill="#1B5CEE" transform="translate(92,13)"/>
<path d="M0 0 C3.6875 0.25 3.6875 0.25 6.125 1.1875 C8.34296628 4.11521548 8.24597972 6.5511658 8.0703125 10.15234375 C7.6875 12.25 7.6875 12.25 6.0625 14.3125 C3.01999717 15.51348796 0.93507827 15.65594728 -2.3125 15.25 C-4.625 14.125 -4.625 14.125 -6.3125 12.25 C-7.51612584 8.55888074 -7.65668291 6.95401049 -5.9375 3.4375 C-3.58491576 0.27055968 -3.58491576 0.27055968 0 0 Z M-0.3125 4.25 C-0.6425 4.91 -0.9725 5.57 -1.3125 6.25 C0.0075 5.92 1.3275 5.59 2.6875 5.25 C1.6975 4.92 0.7075 4.59 -0.3125 4.25 Z M-1.3125 9.25 C-0.9825 9.91 -0.6525 10.57 -0.3125 11.25 C0.6775 10.92 1.6675 10.59 2.6875 10.25 C1.3675 9.92 0.0475 9.59 -1.3125 9.25 Z " fill="#1A5CEE" transform="translate(127.3125,12.75)"/>
<path d="M0 0 C2.73883355 1.59029045 2.94967699 2.83465297 3.875 5.875 C4.02405268 9.60131711 3.25133987 11.08159647 1 14 C-1.88861709 15.44430855 -3.79647701 15.37688506 -7 15 C-9.9375 12.9375 -9.9375 12.9375 -12 10 C-12 6.48044581 -11.63108355 4.15079941 -9.9375 1.0625 C-6.74841596 -0.68635254 -3.54329495 -0.53260383 0 0 Z M-5 4 C-6.29633621 5.06645115 -6.29633621 5.06645115 -6.0625 7.5625 C-6.041875 8.366875 -6.02125 9.17125 -6 10 C-4.68 10 -3.36 10 -2 10 C-2 8.35 -2 6.7 -2 5 C-2.99 4.67 -3.98 4.34 -5 4 Z " fill="#1A5CEE" transform="translate(87,13)"/>
<path d="M0 0 C0 1.32 0 2.64 0 4 C1.32 4 2.64 4 4 4 C4 5.32 4 6.64 4 8 C2.68 8 1.36 8 0 8 C0 10.31 0 12.62 0 15 C1.32 14.67 2.64 14.34 4 14 C3.67 15.65 3.34 17.3 3 19 C-2.33333333 19.35555556 -2.33333333 19.35555556 -4.875 18 C-6.70488947 14.74686316 -6.18128355 11.68609891 -6 8 C-6.66 8 -7.32 8 -8 8 C-8 6.68 -8 5.36 -8 4 C-7.34 4 -6.68 4 -6 4 C-6 3.01 -6 2.02 -6 1 C-4 0 -4 0 0 0 Z " fill="#1A5CEE" transform="translate(116,9)"/>
</svg>
